<?xml version="1.0" encoding="UTF-8"?>
<!DOCTYPE svg PUBLIC "-//W3C//DTD SVG 1.1//EN" "http://www.w3.org/Graphics/SVG/1.1/DTD/svg11.dtd">
<svg version="1.1" xmlns="http://www.w3.org/2000/svg" xmlns:xlink="http://www.w3.org/1999/xlink" x="0" y="0" width="634.96" height="986.44" viewBox="0, 0, 158.74, 246.61">
  <g id="Layer_1">
    <path d="M21.37,33.5 L137.37,33.5 L137.37,149.5 L21.37,149.5 z" fill="#BB9B8C" id="Background"/>
    <g id="Body">
      <path d="M70.028,105.404 L89.92,105.404 L89.92,114.268 L70.028,114.268 z" fill="#487FC0"/>
      <path d="M79.842,111.001 L79.842,111.001 L79.842,111.001 L79.842,111.001 L79.842,111.001 C45.842,111.001 45.842,149.5 46.842,149.5 L79.841,149.5 L79.842,149.5 L112.748,149.5 C112.749,149.499 113.144,111.001 79.842,111.001 z" fill="#487FC0"/>
      <path d="M89.902,109.297 L89.933,110.594 C84.461,112.11 76.545,112.048 70.027,110.641 L70.027,109.422 C76.357,110.789 84.486,110.778 89.75,109.32 z" fill="#F66E0A"/>
      <g id="stripes">
        <path d="M111.234,137.763 L111.828,140.623 L47.172,140.623 L47.766,137.717 L111.234,137.763 z" fill="#F66E0A"/>
        <path d="M112.281,143.326 L112.609,146.258 L46.558,146.326 L46.797,143.344 L112.281,143.326 z" fill="#F66E0A"/>
        <path d="M111.797,140.388 L112.281,143.344 L46.808,143.342 L47.203,140.388 L111.797,140.388 z" fill="#FFFFFF"/>
      </g>
      <text transform="matrix(1, 0, 0, 1, 64.884, 135.25)">
        <tspan x="-7.035" y="0.512" font-family="HelveticaNeue-Medium" font-size="5" fill="#FFFFFF">VCGH</tspan>
      </text>
    </g>
    <g id="Head">
      <path d="M110.375,75.688 C110.375,93.862 98.036,108.666 79.862,108.666 C61.688,108.666 50.125,93.674 50.125,75.5 C50.125,57.326 61.06,42.852 79.862,42.852 C99.56,42.852 110.375,57.513 110.375,75.688 z" fill="#F9DBD5" id="Head"/>
      <path d="M71.64,77.767 C71.64,80.163 69.698,82.105 67.302,82.105 C64.907,82.105 62.964,80.163 62.964,77.767 C62.964,75.371 64.907,73.429 67.302,73.429 C69.698,73.429 71.64,75.371 71.64,77.767 z" fill="#3C3C3B" fill-opacity="0.853" id="Left_Eye"/>
      <path d="M96.632,77.767 C96.632,80.163 94.689,82.105 92.293,82.105 C89.898,82.105 87.955,80.163 87.955,77.767 C87.955,75.371 89.898,73.429 92.293,73.429 C94.689,73.429 96.632,75.371 96.632,77.767 z" fill="#3C3C3B" fill-opacity="0.842" id="Right_eye"/>
      <path d="M50.25,72 L62.125,49.75 C75.5,51.375 81.181,52.875 97.818,49.625 L110.25,72.062 C110.25,72.062 109,42.854 79.876,42.853 C51.5,42.852 50.25,72 50.25,72 z" fill="url(#Gradient_1)" id="Hair"/>
    </g>
  </g>
  <defs>
    <linearGradient id="Gradient_1" gradientUnits="userSpaceOnUse" x1="42.853" y1="-80.25" x2="72.062" y2="-80.25" gradientTransform="matrix(0, 1, -1, 0, 0, 0)">
      <stop offset="0" stop-color="#CFBB88"/>
      <stop offset="1" stop-color="#E2E3E1" stop-opacity="0.959"/>
    </linearGradient>
  </defs>
</svg>
