<?xml version="1.0" encoding="UTF-8"?>
<!DOCTYPE svg PUBLIC "-//W3C//DTD SVG 1.1//EN" "http://www.w3.org/Graphics/SVG/1.1/DTD/svg11.dtd">
<svg version="1.1" xmlns="http://www.w3.org/2000/svg" xmlns:xlink="http://www.w3.org/1999/xlink" x="0" y="0" width="634.96" height="986.44" viewBox="0, 0, 158.74, 246.61">
  <g id="Layer_1">
    <path d="M21.37,33.5 L137.37,33.5 L137.37,149.5 L21.37,149.5 z" fill="#BB9B8C" id="Background"/>
    <g id="Body">
      <path d="M70.063,105.404 L89.955,105.404 L89.955,114.268 L70.063,114.268 z" fill="#487FC0"/>
      <path d="M79.877,111.001 L79.877,111.001 L79.877,111.001 L79.877,111.001 L79.877,111.001 C45.877,111.001 45.877,149.5 46.877,149.5 L79.876,149.5 L79.877,149.5 L112.783,149.5 C112.784,149.499 113.179,111.001 79.877,111.001 z" fill="#487FC0"/>
      <path d="M89.953,109.922 C84.427,111.453 76.286,111.375 70.062,110.031" fill-opacity="0" stroke="#F66E0A" stroke-width="1.25" stroke-linejoin="round"/>
      <g id="stripes">
        <path d="M59.567,129.25 L99.822,129.25" fill-opacity="0" stroke="#F66E0A" stroke-width="2"/>
        <path d="M59.567,133.125 L99.822,133.125" fill-opacity="0" stroke="#F66E0A" stroke-width="2"/>
        <path d="M59.567,131.125 L99.822,131.125" fill-opacity="0" stroke="#FFFFFF" stroke-width="2"/>
      </g>
      <path d="M59.567,128.266 C59.947,131.863 60.502,132.239 60.875,133.938 C61.808,139.418 61.223,144.042 60.375,149.5 L59.25,149.5 L58.562,132.25 z" fill="#404040"/>
      <path d="M99.822,128.266 C99.137,132.094 98.263,132.398 98.062,134.125 C97.438,139.5 98.156,144 98.594,149.5 L99.438,149.5 L100.375,132.438 z" fill="#404040"/>
      <text transform="matrix(1, 0, 0, 1, 69.357, 127.625)">
        <tspan x="-5.628" y="-1.5" font-family="HelveticaNeue-Medium" font-size="4" fill="#FFFFFF">VCGH</tspan>
      </text>
    </g>
    <g id="Head">
      <path d="M110.375,75.688 C110.375,93.862 98.036,108.666 79.862,108.666 C61.688,108.666 50.125,93.674 50.125,75.5 C50.125,57.326 61.06,42.852 79.862,42.852 C99.56,42.852 110.375,57.513 110.375,75.688 z" fill="#F9DBD5" id="Head"/>
      <path d="M71.64,77.767 C71.64,80.163 69.698,82.105 67.302,82.105 C64.907,82.105 62.964,80.163 62.964,77.767 C62.964,75.371 64.907,73.429 67.302,73.429 C69.698,73.429 71.64,75.371 71.64,77.767 z" fill="#3C3C3B" fill-opacity="0.853" id="Left_Eye"/>
      <path d="M96.632,77.767 C96.632,80.163 94.689,82.105 92.293,82.105 C89.898,82.105 87.955,80.163 87.955,77.767 C87.955,75.371 89.898,73.429 92.293,73.429 C94.689,73.429 96.632,75.371 96.632,77.767 z" fill="#3C3C3B" fill-opacity="0.842" id="Right_eye"/>
      <path d="M50.5,70.188 L60.5,50 C73.875,51.625 81.181,52.875 97.818,49.625 L110.25,72.062 C110.25,72.062 109,42.852 79.876,42.853 C52.248,42.854 50.5,70.188 50.5,70.188 z" fill="url(#Gradient_1)" id="Hair"/>
    </g>
  </g>
  <defs>
    <linearGradient id="Gradient_1" gradientUnits="userSpaceOnUse" x1="42.853" y1="-80.375" x2="72.062" y2="-80.375" gradientTransform="matrix(0, 1, -1, 0, 0, 0)">
      <stop offset="0" stop-color="#CFBB88"/>
      <stop offset="1" stop-color="#E2E3E1" stop-opacity="0.959"/>
    </linearGradient>
  </defs>
</svg>
