<?xml version="1.0" encoding="UTF-8"?>
<!DOCTYPE svg PUBLIC "-//W3C//DTD SVG 1.1//EN" "http://www.w3.org/Graphics/SVG/1.1/DTD/svg11.dtd">
<svg version="1.1" xmlns="http://www.w3.org/2000/svg" xmlns:xlink="http://www.w3.org/1999/xlink" x="0" y="0" width="600" height="600" viewBox="0, 0, 150, 150">
  <g id="Layer_1">
    <path d="M17,17 L133,17 L133,133 L17,133 z" fill="url(#Gradient_1)" id="Background"/>
    <g id="Body">
      <path d="M65.658,88.904 L85.55,88.904 L85.55,97.768 L65.658,97.768 z" fill="#487FC0"/>
      <path d="M75.472,94.501 L75.472,94.501 L75.472,94.501 L75.472,94.501 L75.472,94.501 C41.472,94.501 41.472,133 42.472,133 L75.471,133 L75.472,133 L108.378,133 C108.379,132.999 108.774,94.501 75.472,94.501 z" fill="#487FC0"/>
      <path d="M85.532,92.797 L85.563,94.094 C80.091,95.61 72.175,95.548 65.657,94.141 L65.657,92.922 C71.987,94.289 80.116,94.278 85.38,92.82 z" fill="#F66E0A"/>
      <g id="stripes">
        <path d="M106.864,120.263 L107.458,123.123 L42.802,123.123 L43.396,120.217 L106.864,120.263 z" fill="#F66E0A"/>
        <path d="M107.911,125.826 L108.239,128.758 L42.188,128.826 L42.427,125.844 L107.911,125.826 z" fill="#F66E0A"/>
        <path d="M107.427,122.888 L107.911,125.844 L42.438,125.842 L42.833,122.888 L107.427,122.888 z" fill="#FFFFFF"/>
      </g>
      <text transform="matrix(1, 0, 0, 1, 60.514, 117.75)">
        <tspan x="-7.035" y="0.512" font-family="HelveticaNeue-Medium" font-size="5" fill="#FFFFFF">VCGH</tspan>
      </text>
    </g>
    <g id="Head">
      <path d="M106.005,59.188 C106.005,77.362 93.666,92.166 75.492,92.166 C57.318,92.166 45.755,77.174 45.755,59 C45.755,40.826 56.69,26.352 75.492,26.352 C95.19,26.352 106.005,41.013 106.005,59.188 z" fill="#F9DBD5" id="Head"/>
      <path d="M67.27,61.267 C67.27,63.663 65.328,65.605 62.932,65.605 C60.537,65.605 58.594,63.663 58.594,61.267 C58.594,58.871 60.537,56.929 62.932,56.929 C65.328,56.929 67.27,58.871 67.27,61.267 z" fill="#3C3C3B" fill-opacity="0.853" id="Left_Eye"/>
      <path d="M92.261,61.267 C92.261,63.663 90.319,65.605 87.923,65.605 C85.528,65.605 83.585,63.663 83.585,61.267 C83.585,58.871 85.528,56.929 87.923,56.929 C90.319,56.929 92.261,58.871 92.261,61.267 z" fill="#3C3C3B" fill-opacity="0.842" id="Right_eye"/>
      <path d="M45.88,55.5 L57.755,33.25 C71.13,34.875 76.811,36.375 93.448,33.125 L105.88,55.562 C105.88,55.562 104.63,26.354 75.506,26.353 C47.13,26.352 45.88,55.5 45.88,55.5 z" fill="url(#Gradient_2)" id="Hair"/>
    </g>
  </g>
  <defs>
    <linearGradient id="Gradient_1" gradientUnits="userSpaceOnUse" x1="75" y1="133" x2="75" y2="17">
      <stop offset="0" stop-color="#FFFFFF"/>
      <stop offset="1" stop-color="#909090"/>
    </linearGradient>
    <linearGradient id="Gradient_2" gradientUnits="userSpaceOnUse" x1="26.353" y1="-75.88" x2="55.562" y2="-75.88" gradientTransform="matrix(0, 1, -1, 0, 0, 0)">
      <stop offset="0" stop-color="#CFBB88"/>
      <stop offset="1" stop-color="#E2E3E1" stop-opacity="0.959"/>
    </linearGradient>
  </defs>
</svg>
